<?xml version="1.0" standalone="no"?>
<!DOCTYPE svg PUBLIC "-//W3C//DTD SVG 20010904//EN"
 "http://www.w3.org/TR/2001/REC-SVG-20010904/DTD/svg10.dtd">
<svg version="1.0" xmlns="http://www.w3.org/2000/svg"
 width="1080.000000pt" height="1080.000000pt" viewBox="0 0 1080.000000 1080.000000"
 preserveAspectRatio="xMidYMid meet">

<g transform="translate(0.000000,1080.000000) scale(0.100000,-0.100000)"
fill="#000000" stroke="none">
<path d="M5975 8180 c19 -8 19 -9 -2 -9 -14 -1 -23 -7 -23 -17 0 -14 8 -16 41
-11 22 3 44 8 47 12 11 11 -30 35 -57 34 -24 0 -24 -1 -6 -9z"/>
<path d="M6122 8153 c4 -19 35 -25 55 -10 19 14 5 27 -28 27 -24 0 -30 -4 -27
-17z"/>
<path d="M6359 8133 c-1 -5 -1 -11 0 -15 2 -11 -37 -10 -44 2 -3 5 -12 7 -19
4 -7 -3 -29 -6 -50 -7 -46 -3 -51 -19 -8 -33 31 -10 32 -11 15 -26 -18 -17
-68 -14 -79 3 -3 5 -11 9 -17 9 -7 0 -6 -4 3 -10 12 -8 9 -10 -12 -10 -16 0
-28 -6 -28 -12 0 -10 31 -14 110 -16 103 -3 110 -2 103 15 -6 17 -5 17 14 1
11 -10 32 -18 47 -18 22 0 26 -4 21 -19 -3 -10 1 -24 10 -31 19 -16 19 -40 0
-40 -23 0 -18 -28 6 -35 11 -4 23 -4 26 -1 8 8 44 -14 38 -23 -2 -5 2 -14 10
-21 12 -10 13 -16 3 -28 -11 -13 -10 -14 10 -8 13 5 22 3 22 -3 0 -6 -7 -11
-15 -11 -8 0 -15 -4 -15 -10 0 -5 4 -10 9 -10 9 0 1 -19 -40 -101 -4 -9 -11
-34 -14 -55 -4 -22 -14 -61 -22 -89 -8 -27 -18 -103 -23 -168 -7 -101 -6 -129
9 -186 39 -148 158 -272 315 -328 54 -19 203 -25 285 -13 101 16 150 35 359
137 198 97 270 124 114 41 -230 -120 -280 -144 -354 -169 -21 -7 -38 -15 -38
-19 0 -3 -10 -6 -22 -7 -53 -3 -108 -16 -108 -25 0 -6 10 -8 23 -5 38 10 46
-3 36 -53 -5 -25 -11 -67 -13 -95 -2 -27 -7 -71 -11 -96 -5 -33 -3 -49 7 -60
8 -8 17 -22 21 -31 3 -10 12 -18 18 -18 6 0 36 -27 66 -60 31 -33 62 -60 70
-60 7 0 16 -7 19 -15 4 -8 10 -12 15 -9 5 3 9 1 9 -3 0 -5 33 -42 73 -83 94
-98 124 -135 203 -252 214 -320 284 -594 308 -1198 7 -163 7 -167 19 -138 8
20 20 30 45 34 23 5 36 14 40 27 4 17 11 19 62 14 57 -6 78 1 118 40 8 8 39
13 82 13 38 0 75 3 84 6 13 5 16 -1 16 -26 0 -24 4 -31 18 -29 50 5 48 8 56
-158 4 -87 9 -279 11 -428 6 -368 13 -503 31 -537 41 -80 115 -158 150 -158
11 0 32 -7 48 -15 16 -9 31 -14 33 -12 2 2 -4 21 -12 41 -83 197 -128 723
-106 1223 17 393 37 622 71 820 62 359 139 612 251 814 37 68 40 88 6 49 -9
-11 -23 -17 -32 -14 -8 4 -36 -11 -66 -35 -28 -23 -61 -41 -73 -41 -21 0 -126
100 -126 120 0 5 -10 20 -22 34 -57 61 -92 105 -121 151 -17 28 -34 52 -37 55
-11 9 -118 167 -134 197 -8 15 -27 42 -43 58 -15 17 -37 44 -47 60 -11 17 -25
33 -32 38 -7 4 -10 15 -7 24 4 11 3 14 -5 9 -7 -4 -12 -1 -12 7 0 7 -16 32
-35 54 -19 22 -39 53 -45 67 -5 14 -16 26 -25 26 -8 0 -15 4 -15 8 0 15 -44
29 -80 26 l-35 -4 33 15 c96 44 368 55 437 17 11 -6 49 -24 85 -40 36 -16 96
-50 133 -75 38 -25 67 -41 65 -34 -5 15 -128 109 -191 145 -27 15 -45 32 -42
40 3 7 -5 12 -20 12 -16 0 -39 16 -68 48 -25 26 -74 79 -110 117 -64 70 -108
139 -114 183 -4 22 -3 22 21 7 13 -9 27 -23 30 -32 5 -13 4 -14 -9 -3 -9 7
-19 10 -22 6 -11 -10 19 -26 38 -21 8 3 25 -4 38 -16 24 -23 35 -21 25 5 -8
21 -211 156 -235 156 -24 0 -25 -27 -2 -60 25 -38 76 -90 87 -90 6 0 25 -19
41 -42 17 -23 65 -82 108 -132 104 -121 108 -127 57 -110 -22 8 -81 18 -131
24 -104 12 -164 37 -240 100 -34 29 -46 46 -42 59 12 48 -91 141 -156 141 -24
0 -32 -5 -37 -25 -8 -32 -38 -35 -31 -2 4 18 -8 32 -72 82 -78 61 -237 175
-245 175 -3 0 -47 26 -98 58 -52 33 -106 62 -121 66 -15 3 -27 13 -27 21 0 13
-40 22 -73 16 -5 -1 -6 7 -2 18 5 17 2 18 -27 12 -18 -5 -44 -11 -58 -15 -16
-5 -9 3 18 19 24 15 42 29 39 31 -2 2 -29 -4 -60 -15 -32 -10 -57 -15 -57 -11
0 8 85 55 137 75 l38 15 -35 -6 c-114 -18 -261 -135 -357 -282 -30 -46 -57
-82 -59 -79 -14 14 113 203 182 272 33 32 53 55 47 51 -7 -4 -19 -4 -25 1 -7
4 -30 8 -51 9 -22 0 -43 7 -49 15 -6 10 -7 4 -3 -18 6 -30 4 -33 -18 -33 -13
0 -30 7 -37 15 -10 13 -9 15 9 15 25 0 26 6 7 26 -20 19 -71 18 -103 -3 -25
-17 -26 -17 -18 6 5 16 4 21 -4 17 -6 -4 -11 -2 -11 3 0 12 -109 15 -111 4z
m38 -19 c-3 -3 -12 -4 -19 -1 -8 3 -5 6 6 6 11 1 17 -2 13 -5z m70 -40 c-3 -3
-12 -4 -19 -1 -8 3 -5 6 6 6 11 1 17 -2 13 -5z m268 -14 c3 -5 1 -10 -4 -10
-6 0 -11 5 -11 10 0 6 2 10 4 10 3 0 8 -4 11 -10z m355 -301 c0 -5 -11 -9 -25
-9 -24 0 -32 10 -19 22 8 8 44 -3 44 -13z m-344 -90 c10 -17 -13 -36 -27 -22
-12 12 -4 33 11 33 5 0 12 -5 16 -11z m923 -147 c0 -9 3 -29 7 -45 5 -22 1
-32 -20 -52 l-26 -24 -43 18 c-23 10 -49 30 -57 45 -14 25 -13 28 4 42 11 8
41 14 68 14 38 0 46 3 42 15 -5 11 -2 13 9 9 9 -3 16 -13 16 -22z m-1140 -365
c36 -71 37 -77 15 -56 -57 53 -90 154 -78 238 l8 56 7 -79 c6 -65 14 -94 48
-159z m428 197 c40 -30 63 -77 63 -127 0 -41 -19 -99 -30 -92 -4 3 -14 -2 -21
-11 -29 -35 -71 -47 -158 -45 -39 1 -50 7 -93 50 -29 29 -47 55 -43 61 5 8 22
-3 50 -30 55 -54 127 -70 188 -44 37 17 37 18 37 74 0 42 -5 64 -20 83 -23 29
-25 38 -7 31 22 -8 41 -47 48 -99 l6 -50 2 49 c2 67 -38 138 -93 167 l-41 21
38 -6 c22 -3 55 -17 74 -32z m683 -14 c0 -21 -15 -27 -25 -10 -7 12 2 30 16
30 5 0 9 -9 9 -20z m-785 -40 c10 -11 16 -21 14 -23 -19 -14 -89 -38 -97 -33
-5 3 -15 -1 -22 -10 -11 -12 -8 -20 20 -49 38 -39 25 -47 -20 -13 -48 35 -37
92 23 128 41 25 59 25 82 0z m-265 -51 c0 -22 30 -90 57 -128 14 -19 15 -23 3
-19 -27 8 -80 98 -80 134 0 19 5 34 10 34 6 0 10 -9 10 -21z m275 -12 c24 -18
14 -62 -17 -70 -30 -8 -38 -1 -38 37 0 48 18 59 55 33z m443 -40 c2 -12 -3
-17 -17 -17 -12 0 -21 6 -21 13 0 31 32 34 38 4z m517 -32 c-35 -16 -64 -20
-49 -6 10 10 39 18 64 19 8 0 2 -6 -15 -13z m-75 -24 c-8 -5 -26 -11 -40 -15
-21 -5 -20 -3 5 9 32 15 60 20 35 6z m-907 -8 c-7 -2 -21 -2 -30 0 -10 3 -4 5
12 5 17 0 24 -2 18 -5z m47 -3 c-20 -13 -33 -13 -25 0 3 6 14 10 23 10 15 0
15 -2 2 -10z m-392 -35 c-3 -3 -9 2 -12 12 -6 14 -5 15 5 6 7 -7 10 -15 7 -18z
m62 -70 l44 -50 -47 45 c-26 24 -47 48 -47 54 0 5 1 7 3 5 2 -2 23 -26 47 -54z
m540 -572 c0 -10 -6 -13 -16 -9 -9 3 -18 6 -20 6 -2 0 -4 6 -4 14 0 9 7 12 20
9 11 -3 20 -12 20 -20z m810 -1768 c0 -8 -7 -15 -16 -15 -14 0 -14 3 -4 15 7
8 14 15 16 15 2 0 4 -7 4 -15z"/>
<path d="M7037 8123 c18 -2 50 -2 70 0 21 2 7 4 -32 4 -38 0 -55 -2 -38 -4z"/>
<path d="M3944 8012 c-52 -38 -122 -118 -139 -159 -15 -36 -30 -45 -20 -12 7
20 -7 12 -117 -72 -20 -14 -28 -17 -28 -7 0 8 -3 9 -8 3 -8 -12 -26 -23 -102
-65 -61 -33 -150 -114 -150 -136 0 -8 -6 -14 -14 -14 -7 0 -28 -16 -47 -37
-19 -20 -47 -48 -63 -62 -16 -14 -36 -34 -45 -45 -9 -10 -26 -30 -38 -44 -13
-14 -23 -31 -23 -38 0 -7 -13 -18 -29 -25 -16 -7 -36 -24 -45 -38 l-17 -26 6
35 c9 44 44 108 102 183 25 32 42 61 39 65 -4 3 -52 -40 -107 -97 -116 -119
-158 -193 -179 -315 -7 -42 -17 -76 -23 -76 -13 0 -4 -65 16 -112 17 -39 71
-80 122 -92 29 -6 28 -5 -10 20 -26 16 -31 23 -15 17 14 -4 57 -8 95 -8 54 0
81 6 120 25 115 56 326 310 412 495 146 314 244 496 323 600 53 70 47 82 -16
37z m-254 -352 c0 -11 -7 -20 -15 -20 -15 0 -21 21 -8 33 12 13 23 7 23 -13z
m-331 -307 c-13 -15 -11 -15 13 1 40 26 78 17 102 -22 34 -59 19 -115 -51
-193 -19 -21 -31 -39 -25 -39 6 0 27 19 47 43 20 23 31 31 25 18 -32 -64 -163
-173 -226 -186 -26 -6 -27 -5 -9 6 49 30 146 102 142 105 -2 3 -28 -11 -57
-31 -67 -45 -104 -47 -119 -4 -14 42 -14 82 0 73 7 -4 9 0 5 12 -9 30 38 119
95 179 29 30 56 55 62 55 5 0 3 -8 -4 -17z m-308 -156 c-10 -9 -11 -8 -5 6 3
10 9 15 12 12 3 -3 0 -11 -7 -18z m-91 -291 c0 -12 -5 -7 -19 24 -11 24 -11
24 3 6 9 -11 16 -24 16 -30z"/>
<path d="M3347 7262 c-71 -52 -143 -195 -108 -216 7 -5 11 6 11 31 1 29 3 34
10 22 6 -11 18 -15 35 -11 34 6 40 19 21 41 -9 10 -16 22 -16 27 0 6 25 34 55
63 30 29 52 57 49 62 -8 13 -15 11 -57 -19z"/>
<path d="M3443 7275 c-3 -9 -3 -18 0 -21 9 -9 27 6 27 22 0 19 -19 18 -27 -1z"/>
<path d="M3366 7154 c-10 -25 -1 -27 19 -4 15 17 16 20 3 20 -9 0 -19 -7 -22
-16z"/>
<path d="M7865 7740 c-7 -11 2 -30 14 -30 5 0 11 9 14 20 5 21 -16 29 -28 10z"/>
<path d="M4994 7663 c0 -49 -46 -286 -66 -336 -7 -17 -17 -27 -27 -25 -35 7
-12 140 58 345 18 51 18 52 0 42 -10 -5 -23 -18 -28 -27 -13 -25 -81 -304 -81
-334 0 -52 57 -66 87 -22 9 14 32 81 50 148 62 227 65 256 25 256 -15 0 -18
-8 -18 -47z"/>
<path d="M8305 7410 c-4 -7 4 -24 18 -38 13 -15 40 -45 58 -67 57 -67 157
-165 169 -165 14 0 -12 34 -93 120 -34 37 -81 88 -104 114 -26 30 -44 43 -48
36z"/>
<path d="M4390 6784 c-483 -33 -756 -73 -972 -145 -324 -107 -554 -255 -721
-462 -97 -121 -127 -166 -182 -276 -155 -308 -215 -665 -194 -1146 20 -447
113 -787 291 -1061 81 -126 214 -275 323 -364 243 -197 466 -292 880 -375 127
-25 289 -55 360 -65 72 -11 166 -27 210 -35 147 -29 553 -47 1075 -48 556 -2
717 7 995 55 367 62 653 188 897 392 228 191 369 494 419 906 18 144 18 778 1
925 -63 528 -240 864 -617 1173 -201 165 -428 278 -735 366 -173 49 -320 72
-799 126 -267 30 -989 50 -1231 34z m565 -13 c71 -4 -11 -8 -280 -13 -232 -4
-432 -13 -515 -22 -215 -25 -449 -56 -534 -72 -83 -15 -102 -17 -95 -9 15 15
266 53 599 91 230 27 618 39 825 25z m314 -57 c123 -8 265 -19 315 -24 249
-27 580 -83 603 -101 16 -14 7 -30 -12 -22 -9 3 -21 0 -29 -6 -10 -9 -37 -9
-107 0 -52 6 -105 12 -119 14 -14 2 -162 15 -330 31 -284 26 -337 28 -780 28
-422 0 -498 -3 -685 -23 -601 -64 -837 -128 -1096 -297 -381 -250 -588 -664
-624 -1249 -12 -185 -11 -299 2 -454 12 -139 12 -173 -1 -160 -13 14 -31 299
-31 499 0 418 50 674 186 945 74 149 136 234 256 352 309 304 716 430 1560
483 174 11 601 3 892 -16z m-1752 -70 c-3 -3 -12 -4 -19 -1 -8 3 -5 6 6 6 11
1 17 -2 13 -5z m1933 -98 c623 -55 990 -131 1240 -256 324 -162 558 -385 715
-683 80 -152 126 -313 156 -547 20 -154 17 -715 -5 -875 -19 -138 -56 -295
-93 -398 -28 -80 -102 -227 -114 -227 -4 0 -10 -8 -13 -17 -3 -10 -21 -34 -38
-54 -18 -20 -48 -56 -67 -80 -19 -24 -62 -67 -96 -95 -85 -72 -260 -184 -286
-184 -6 0 -33 -11 -60 -25 -62 -31 -153 -59 -294 -91 -183 -42 -350 -63 -640
-79 -161 -9 -793 -6 -948 5 -84 5 -224 15 -312 21 -309 20 -815 105 -1071 180
-235 68 -438 182 -577 323 -247 249 -379 548 -443 1001 -21 149 -30 581 -15
727 35 339 151 636 329 848 60 70 55 66 133 132 276 233 610 336 1219 378 85
6 175 12 200 14 124 10 908 -3 1080 -18z m835 -6 c-15 -5 -7 -9 28 -14 27 -4
46 -10 43 -13 -7 -7 -166 17 -186 28 -9 5 4 6 33 3 26 -3 47 -1 47 4 0 5 12 7
27 4 24 -5 25 -6 8 -12z m1342 -1607 c-3 -10 -5 -4 -5 12 0 17 2 24 5 18 2 -7
2 -21 0 -30z m-4853 -1333 c20 -27 33 -50 28 -50 -7 1 -23 21 -56 73 -31 46
-10 30 28 -23z m67 -92 c8 -15 8 -18 0 -14 -6 4 -16 16 -22 28 -8 15 -8 18 0
14 6 -4 16 -16 22 -28z m199 -173 c116 -88 295 -175 450 -219 341 -97 694
-154 1235 -197 220 -18 355 -22 728 -23 253 0 442 -4 420 -8 -21 -4 -216 -7
-433 -7 -396 -1 -704 13 -1020 44 -141 14 -208 24 -500 71 -122 20 -362 77
-465 110 -206 68 -384 171 -525 304 -36 34 -41 41 -15 20 22 -17 78 -60 125
-95z m4195 -24 c-207 -198 -483 -322 -827 -371 -76 -11 -148 -19 -161 -19 -12
1 3 5 33 10 280 44 381 67 512 118 164 64 352 186 467 305 25 25 47 43 50 40
3 -3 -30 -40 -74 -83z m-1037 -398 c-10 -2 -28 -2 -40 0 -13 2 -5 4 17 4 22 1
32 -1 23 -4z m-110 -10 c-10 -2 -26 -2 -35 0 -10 3 -2 5 17 5 19 0 27 -2 18
-5z"/>
<path d="M3245 5666 c-135 -31 -219 -76 -321 -170 -312 -286 -352 -859 -85
-1223 96 -131 239 -240 372 -284 64 -21 93 -24 209 -24 114 0 144 4 194 22
150 56 266 167 346 328 71 146 94 246 94 425 0 155 -19 262 -71 398 -69 184
-188 338 -344 445 -112 77 -273 111 -394 83z m225 -46 c12 -8 11 -10 -7 -10
-13 0 -23 5 -23 10 0 13 11 13 30 0z m28 -245 c66 -50 159 -146 181 -187 13
-25 12 -29 -28 -75 -45 -50 -104 -165 -116 -223 -12 -59 -21 -69 -58 -65 -17
3 -77 9 -132 15 -84 9 -169 23 -332 56 -31 6 -43 34 -50 113 -7 79 10 126 74
207 79 99 259 201 360 203 34 1 51 -7 101 -44z m-508 21 c0 -2 -8 -10 -17 -17
-16 -13 -17 -12 -4 4 13 16 21 21 21 13z m-50 -60 c0 -3 -4 -8 -10 -11 -5 -3
-10 -1 -10 4 0 6 5 11 10 11 6 0 10 -2 10 -4z m-173 -488 c-2 -18 -4 -4 -4 32
0 36 2 50 4 33 2 -18 2 -48 0 -65z m0 -75 c-3 -10 -5 -4 -5 12 0 17 2 24 5 18
2 -7 2 -21 0 -30z m284 -265 c16 -17 31 -39 34 -48 3 -9 21 -22 40 -29 20 -7
44 -22 55 -34 11 -11 20 -17 20 -12 0 5 6 2 13 -6 6 -9 36 -26 66 -38 43 -17
56 -19 63 -9 6 10 8 9 8 -3 0 -19 26 -33 35 -19 4 6 13 7 24 1 9 -5 29 -8 44
-7 15 2 27 0 27 -4 0 -3 19 -5 43 -4 54 3 70 7 80 19 4 6 10 5 16 -3 6 -10 10
-8 15 10 3 13 9 19 13 13 9 -12 38 -13 49 -2 4 4 14 7 21 7 13 0 24 7 58 38 8
7 19 11 24 8 5 -4 11 -2 13 3 1 5 19 18 38 30 19 11 28 21 20 21 -11 1 -10 4
4 15 11 8 25 15 30 15 6 0 4 -5 -4 -10 -8 -5 -10 -10 -5 -10 6 0 17 5 25 10
13 9 13 11 0 21 -13 9 -12 10 3 5 15 -5 21 4 19 26 -1 3 5 9 13 12 24 9 18
-13 -32 -113 -87 -173 -203 -267 -346 -280 -186 -17 -343 49 -459 193 -61 76
-128 216 -102 216 4 0 20 -14 35 -32z m763 -93 c-4 -8 -11 -15 -16 -15 -6 0
-5 6 2 15 7 8 14 15 16 15 2 0 1 -7 -2 -15z m137 -17 c-60 -155 -197 -285
-360 -341 -69 -25 -208 -33 -283 -18 -77 16 -189 72 -264 132 -75 60 -84 73
-16 25 85 -61 204 -115 287 -132 239 -49 435 47 598 294 23 34 42 62 44 62 1
0 -1 -10 -6 -22z m-900 -50 c22 -28 25 -45 3 -28 -17 15 -38 50 -28 50 3 0 14
-10 25 -22z"/>
<path d="M6255 5644 c-191 -40 -383 -154 -496 -294 -163 -203 -223 -366 -222
-605 0 -160 17 -233 84 -372 115 -240 316 -410 574 -484 67 -20 103 -23 225
-23 132 0 152 2 223 27 240 84 406 222 511 426 72 140 91 226 91 416 0 143 -3
170 -27 257 -93 334 -346 576 -670 642 -70 15 -242 20 -293 10z m108 -351 c36
-27 66 -51 67 -55 0 -5 -19 -27 -41 -50 -108 -111 -176 -223 -205 -337 l-18
-71 -38 0 c-76 0 -243 30 -255 46 -15 20 -27 152 -19 201 18 97 67 164 165
224 49 29 220 86 267 88 6 1 41 -20 77 -46z m728 -675 c1 -7 1 -17 0 -21 -1
-4 3 -16 8 -25 13 -24 -26 -139 -73 -218 -210 -350 -662 -434 -1000 -186 -85
63 -188 182 -156 182 5 0 10 4 10 10 0 5 -7 7 -15 4 -9 -4 -16 3 -21 20 -3 14
-9 26 -13 26 -3 0 -11 17 -18 38 -6 20 -15 45 -18 55 -12 30 9 18 38 -22 15
-22 27 -50 27 -63 0 -16 3 -19 9 -10 6 10 12 7 25 -12 16 -26 46 -36 46 -16 0
6 -5 10 -11 10 -5 0 -7 5 -4 11 9 14 34 -21 28 -39 -4 -9 1 -12 13 -10 11 2
18 -2 16 -10 -3 -14 44 -36 71 -33 9 1 17 -1 16 -6 -3 -20 2 -24 16 -13 13 11
14 10 9 -4 -9 -24 11 -20 30 7 10 14 14 16 10 5 -4 -10 -1 -18 5 -18 6 0 11 5
11 12 0 6 3 9 6 6 3 -4 0 -16 -6 -28 -10 -18 -10 -21 2 -14 7 5 22 10 32 11
19 3 19 3 1 -17 -23 -25 -1 -28 27 -3 11 9 18 11 18 5 0 -7 14 -12 30 -12 21
0 30 -5 30 -17 0 -14 2 -14 20 2 19 18 20 17 20 -6 0 -18 3 -20 9 -10 5 7 14
10 20 6 7 -4 19 -1 28 7 14 11 16 11 8 -2 -7 -13 -6 -13 7 -2 10 8 19 9 22 3
4 -6 17 -6 37 1 24 8 33 8 39 -3 7 -11 12 -10 28 4 23 21 29 21 35 0 4 -14 5
-12 6 5 1 26 21 30 21 5 1 -16 2 -16 15 1 13 18 15 18 21 2 5 -14 9 -15 15 -4
5 7 14 13 21 13 8 0 12 11 11 25 -1 15 0 18 3 8 3 -10 8 -18 10 -18 13 0 63
31 68 42 5 10 7 10 12 1 3 -7 10 -13 16 -13 7 0 7 4 1 13 -12 14 -24 47 -18
47 2 0 11 -8 21 -17 14 -14 18 -15 22 -4 4 11 6 11 13 0 7 -11 14 -8 36 13 69
66 86 79 99 74 8 -3 14 -1 14 4 0 6 -4 10 -10 10 -5 0 -10 5 -10 10 0 6 7 10
15 10 8 0 15 -4 15 -10 0 -22 15 -8 16 15 1 14 -2 25 -7 25 -5 0 -9 5 -9 11 0
8 4 8 14 0 10 -9 17 -6 30 13 9 14 16 30 16 36 0 5 5 10 10 10 6 0 10 9 10 20
0 11 4 20 9 20 5 0 7 9 4 20 -3 11 0 20 6 20 6 0 12 -6 12 -12z m81 -145 c-24
-77 -76 -167 -142 -246 -40 -48 -120 -115 -120 -101 0 3 28 34 61 67 93 94
170 215 199 315 7 23 15 40 18 38 2 -3 -5 -36 -16 -73z m-297 -23 c-3 -5 -10
-10 -16 -10 -5 0 -9 5 -9 10 0 6 7 10 16 10 8 0 12 -4 9 -10z m-863 -102 c-7
-7 -12 -8 -12 -2 0 14 12 26 19 19 2 -3 -1 -11 -7 -17z m708 -49 c0 -6 -4 -7
-10 -4 -5 3 -10 11 -10 16 0 6 5 7 10 4 6 -3 10 -11 10 -16z"/>
<path d="M4701 3771 c-26 -26 -27 -61 -3 -90 12 -16 36 -25 85 -32 38 -6 71
-8 74 -5 4 3 -5 6 -20 6 -14 0 -29 5 -32 10 -4 6 22 10 69 10 l76 0 0 29 c0
17 -10 42 -24 58 -23 26 -30 28 -114 31 -81 4 -92 2 -111 -17z"/>
<path d="M6990 6680 c0 -5 5 -10 10 -10 6 0 10 5 10 10 0 6 -4 10 -10 10 -5 0
-10 -4 -10 -10z"/>
<path d="M8954 6382 c-132 -96 -243 -390 -323 -856 -96 -559 -116 -1203 -55
-1768 23 -217 58 -329 120 -392 26 -25 33 -27 74 -21 25 4 83 9 130 11 75 3
94 8 155 40 39 19 72 39 75 43 3 3 26 17 53 30 26 13 51 29 56 35 6 7 0 39
-15 84 -94 290 -118 923 -53 1442 39 318 121 708 181 869 l24 64 -48 96 c-49
100 -91 152 -173 214 -51 40 -69 44 -110 25 -23 -10 -29 -9 -51 15 -14 15 -31
27 -39 27 -24 0 -17 17 18 44 43 35 30 33 -19 -2z m27 -424 c13 -24 5 -205
-12 -293 -61 -304 -84 -383 -130 -433 -32 -36 -74 -56 -97 -47 -12 4 -13 21
-8 93 20 254 94 577 151 664 30 45 76 53 96 16z"/>
<path d="M2160 6321 c-206 -164 -332 -395 -411 -749 -106 -478 -87 -941 56
-1332 69 -189 119 -290 175 -357 5 -7 10 -17 10 -23 0 -6 5 -8 10 -5 6 3 13
-1 16 -9 3 -9 9 -16 13 -16 4 0 34 -24 67 -54 32 -30 60 -53 63 -51 2 3 -7 22
-21 42 -50 76 -75 119 -97 167 -120 260 -188 621 -193 1033 -2 111 -6 193 -10
182 -10 -26 -42 -24 -57 4 -32 60 -30 236 4 338 29 85 95 180 95 137 0 -9 4
-8 11 2 7 11 8 4 5 -25 -3 -22 3 -4 14 40 65 263 134 417 282 626 100 142 94
151 -32 50z"/>
<path d="M2132 6128 c-163 -303 -237 -627 -248 -1088 -5 -174 -2 -259 10 -375
21 -185 65 -409 106 -535 70 -217 201 -426 327 -523 54 -41 131 -82 140 -74 1
2 -19 21 -46 43 -86 69 -202 231 -272 379 -126 268 -189 604 -189 1011 0 417
62 771 207 1172 14 40 23 75 20 78 -3 3 -27 -37 -55 -88z m-172 -632 c-25
-153 -40 -293 -50 -486 -8 -140 -8 -138 -5 55 4 191 11 263 50 473 26 137 30
104 5 -42z"/>
<path d="M9535 5993 c-35 -9 -97 -61 -120 -100 -78 -139 -114 -262 -170 -587
-57 -328 -66 -419 -72 -731 -5 -291 2 -448 32 -665 8 -58 14 -109 15 -115 0
-5 5 -3 10 5 8 11 9 8 5 -11 -7 -30 25 -144 55 -199 10 -19 19 -32 20 -28 0 4
19 1 41 -7 70 -25 100 -20 140 23 45 47 79 106 79 138 0 13 5 24 10 24 6 0 10
6 10 14 0 8 9 31 20 53 10 21 42 106 69 188 98 296 149 611 154 945 2 184 -7
372 -21 417 -6 18 -8 58 -5 88 3 31 2 55 -3 54 -21 -4 -28 2 -14 12 11 8 12
12 3 16 -9 3 -11 17 -7 41 7 42 -35 218 -67 288 -23 48 -82 115 -116 133 -23
11 -34 12 -68 4z m36 -39 c55 -18 64 -27 20 -18 -44 9 -97 -13 -131 -54 -16
-20 -30 -31 -30 -25 0 12 77 113 86 113 3 0 27 -7 55 -16z m5 -49 c9 -8 19
-28 24 -44 7 -26 5 -30 -18 -36 -15 -4 -35 -14 -44 -22 -27 -24 -21 1 7 31 14
15 25 31 25 35 0 13 -53 0 -72 -17 -24 -20 -23 -5 2 36 21 35 52 42 76 17z
m170 -201 c-3 -7 0 -14 6 -16 6 -2 12 -28 14 -58 3 -42 2 -48 -5 -25 -4 17
-20 63 -35 103 -14 41 -23 79 -19 85 8 13 46 -72 39 -89z m-123 -101 c16 -9
54 -79 70 -128 63 -194 74 -707 21 -1005 -27 -149 -92 -367 -134 -450 -34 -66
-98 -130 -130 -130 -23 0 -34 10 -60 50 -33 51 -69 68 -71 33 0 -10 -6 -2 -13
17 -11 29 -14 32 -18 15 -3 -11 -5 9 -5 45 1 36 -3 126 -8 200 -12 157 -12
313 -3 495 4 72 7 150 8 175 1 45 1 45 16 20 15 -25 15 -25 8 -1 -10 37 -6
134 7 141 6 4 10 18 8 31 -3 34 9 94 33 159 11 30 22 66 25 79 9 35 110 197
157 249 16 18 26 21 51 16 16 -3 34 -8 38 -11z"/>
<path d="M9610 5431 c0 -25 -26 -39 -43 -22 -6 6 -17 11 -24 11 -6 0 -1 -12
14 -26 29 -29 25 -41 -8 -24 -19 11 -21 10 -16 -3 4 -11 -5 -20 -28 -31 -19
-9 -46 -31 -60 -49 l-26 -32 7 30 c4 17 11 40 15 53 12 32 11 36 -5 23 -25
-21 -68 -172 -95 -331 -6 -36 -17 -107 -26 -158 -17 -105 -19 -376 -4 -517 6
-49 10 -103 10 -118 0 -15 4 -25 9 -22 4 3 14 -8 21 -24 13 -29 35 -39 99 -44
14 -1 28 -6 33 -12 4 -6 11 -5 16 5 6 8 13 11 17 7 8 -7 -24 -47 -35 -45 -3 1
-17 -2 -31 -7 l-25 -9 25 -7 c47 -13 78 -9 100 14 53 55 132 310 156 502 19
154 18 527 -1 641 -19 109 -40 165 -71 195 l-24 22 0 -22z m-31 -210 c81 -81
124 -221 111 -366 -3 -37 -4 -35 -10 20 -24 201 -62 258 -123 185 -56 -65 -91
-234 -85 -402 4 -102 8 -130 26 -165 18 -34 28 -43 48 -43 20 0 29 8 42 40 36
85 41 25 6 -67 -11 -28 -25 -45 -44 -53 -54 -22 -63 -13 -89 92 -25 96 -25 97
-37 63 -7 -21 -9 -70 -6 -129 4 -83 2 -96 -11 -96 -27 0 -56 40 -63 88 -8 54
3 346 17 457 15 112 46 241 73 300 27 59 72 115 92 115 8 0 31 -17 53 -39z
m51 -406 c2 -121 -7 -232 -22 -255 -6 -10 -7 4 -4 40 3 30 1 61 -3 69 -16 25
-37 -9 -39 -64 -2 -52 -18 -105 -33 -105 -23 0 -45 234 -30 316 36 185 48 212
94 205 4 0 7 5 8 12 1 6 7 -15 14 -48 8 -33 15 -109 15 -170z m53 -178 c-10
-92 -57 -266 -69 -254 -2 2 5 39 16 82 11 44 25 112 32 152 12 76 29 92 21 20z"/>
<path d="M9528 5113 c-9 -10 -21 -29 -28 -43 -20 -38 -49 -140 -40 -140 4 0
11 11 14 24 9 35 42 106 66 144 23 34 14 44 -12 15z"/>
<path d="M9421 4664 c0 -11 3 -14 6 -6 3 7 2 16 -1 19 -3 4 -6 -2 -5 -13z"/>
<path d="M9570 4968 c-6 -24 -15 -59 -21 -78 -5 -19 -9 -43 -9 -54 0 -15 3
-16 15 -6 13 10 15 9 15 -8 0 -15 5 -20 15 -16 8 4 12 11 8 16 -3 6 -5 51 -4
99 1 49 -1 89 -3 89 -3 0 -10 -19 -16 -42z"/>
<path d="M9581 4714 c0 -11 3 -14 6 -6 3 7 2 16 -1 19 -3 4 -6 -2 -5 -13z"/>
<path d="M7500 3160 c0 -5 -15 -13 -32 -18 -18 -6 -42 -13 -52 -18 -13 -5 -17
-4 -13 3 8 13 -25 23 -44 13 -8 -4 -33 -11 -56 -15 -24 -4 -43 -11 -43 -17 0
-6 -7 -7 -16 -4 -11 4 -15 2 -11 -7 4 -11 -3 -13 -29 -10 -24 2 -34 -1 -34
-10 0 -8 -6 -14 -14 -14 -8 0 -45 -14 -82 -32 -73 -35 -82 -39 -154 -66 -452
-173 -931 -211 -2115 -171 -128 4 -171 3 -147 -4 17 -6 32 -12 32 -14 0 -8
-80 -5 -111 4 -43 13 -223 39 -241 35 -29 -6 -78 -30 -78 -38 0 -4 10 -7 23
-6 43 4 78 -1 73 -10 -5 -8 26 -19 189 -65 80 -23 134 -29 149 -17 10 8 25 6
61 -10 118 -52 822 -93 1197 -70 246 15 669 55 794 76 95 15 222 51 239 66 5
5 22 9 37 9 15 0 28 4 28 9 0 6 21 13 46 17 25 3 51 12 57 19 6 6 19 10 28 8
9 -3 20 0 23 6 4 6 18 11 31 11 13 0 26 4 30 9 3 5 38 19 78 32 73 22 91 26
160 34 21 3 53 16 71 30 18 14 43 25 54 25 12 0 22 5 22 10 0 6 8 10 18 10 10
0 22 3 26 8 4 4 11 7 14 8 4 0 16 5 26 9 19 8 19 9 0 16 -16 6 -14 8 9 8 18 1
26 -3 21 -10 -4 -7 2 -9 17 -7 13 1 24 10 24 18 0 12 -11 14 -48 12 -41 -3
-48 -1 -45 13 1 9 8 15 13 13 6 -2 9 -6 8 -10 -5 -14 24 -8 38 8 11 14 13 14
21 -1 12 -20 28 -10 28 17 0 17 -4 19 -25 14 -19 -5 -27 -2 -32 11 -13 36 -60
45 -87 17 -9 -8 -20 -12 -26 -9 -5 3 -10 -1 -10 -9 0 -20 -10 -20 -82 0 -59
17 -75 37 -37 47 12 3 18 10 14 16 -8 14 -35 14 -35 1z"/>
<path d="M4248 2813 c6 -2 18 -2 25 0 6 3 1 5 -13 5 -14 0 -19 -2 -12 -5z"/>
<path d="M4198 2783 c7 -3 16 -2 19 1 4 3 -2 6 -13 5 -11 0 -14 -3 -6 -6z"/>
</g>
</svg>
